<?xml version="1.0" encoding="UTF-8"?>
<svg id="Camada_2" data-name="Camada 2" xmlns="http://www.w3.org/2000/svg" viewBox="0 0 594.15 342.56">
  <defs>
    <style>
      .cls-1 {
        fill: #025159;
      }

      .cls-1, .cls-2 {
        stroke-width: 0px;
      }

      .cls-2 {
        fill: #fff;
      }
    </style>
  </defs>
  <g id="Camada_1-2" data-name="Camada 1">
    <g>
      <path class="cls-2" d="M115.61,166.03c2.5,1.74,3.75,3.85,3.75,6.35,0,4.45-1.39,8.02-4.17,10.73-2.78,2.71-6.74,4.06-11.87,4.06-8.06,0-14.16.07-18.33.21-.28,1.67-1.53,9.17-3.75,22.5-2.5,14.86-4.03,23.95-4.58,27.29l-4.37,27.29c-3.06,20.41-5.49,37.49-7.29,51.24,2.92-.14,6.87-.21,11.87-.21,7.36,0,12.36.97,15,2.92,2.64,1.95,3.96,4.86,3.96,8.75,0,3.61-1.43,6.67-4.27,9.17-2.85,2.5-6.84,3.75-11.98,3.75-3.47,0-8.96-.14-16.46-.42-6.95-.28-11.53-.42-13.75-.42-8.75,0-18.33.76-28.75,2.29-4.58.69-7.85,1.04-9.79,1.04-3.06,0-5.62-.83-7.71-2.5-2.08-1.67-3.12-4.09-3.12-7.29,0-5,2.22-8.88,6.67-11.66,4.44-2.78,10.69-4.23,18.75-4.38l9.79-.21.62-4.58c3.33-22.22,5.76-37.91,7.29-47.08l4.58-27.29c2.78-16.11,5.28-32.7,7.5-49.78l-17.5.21c-5,0-8.44-.8-10.31-2.4-1.87-1.59-2.81-3.85-2.81-6.77,0-9.44,6.8-14.51,20.41-15.21,6.39-.28,14.16-.42,23.33-.42l38.12.21c3.61,0,6.67.87,9.17,2.6Z"/>
      <path class="cls-2" d="M239.23,294.86c1.04,1.67,1.56,3.96,1.56,6.87,0,5.56-1.32,9.86-3.96,12.91-5.7,6.95-11.94,12.88-18.75,17.81-6.81,4.93-13.54,7.39-20.21,7.39-10.56,0-18.61-6.18-24.16-18.54-5.83,7.36-10.94,12.29-15.31,14.79-4.37,2.5-9.48,3.75-15.31,3.75-8.47,0-15.45-3.16-20.93-9.48-5.49-6.32-8.23-14.54-8.23-24.68,0-11.11,2.36-21.42,7.08-30.93,4.72-9.51,11.21-17.29,19.48-23.33,8.26-6.04,17.53-9.61,27.81-10.73,2.64-26.94,7.67-49.96,15.1-69.05,7.43-19.09,17.19-28.64,29.27-28.64,5.97,0,10.94,2.71,14.89,8.12,3.96,5.42,5.94,13.61,5.94,24.58,0,15.55-3.82,33.74-11.46,54.57-7.64,20.83-17.85,42.22-30.62,64.16.55,8.05,1.77,13.82,3.65,17.29,1.87,3.47,4.27,5.21,7.19,5.21,3.75,0,7.57-1.67,11.46-5,3.89-3.33,9.09-8.89,15.62-16.66,1.67-1.94,3.54-2.92,5.62-2.92,1.8,0,3.23.83,4.27,2.5ZM158.31,315.59c2.64-2.15,5.97-6.14,10-11.98-1.39-7.5-2.08-15.9-2.08-25.2,0-3.33.14-8.75.42-16.25-7.64,2.36-13.99,7.47-19.06,15.31-5.07,7.85-7.6,16.56-7.6,26.14,0,10.14,3.47,15.21,10.42,15.21,2.64,0,5.28-1.07,7.92-3.23ZM202.47,177.49c-2.64,9.37-4.9,21.63-6.77,36.76-1.88,15.14-3.23,30.97-4.06,47.49,15.55-33.88,23.33-61.1,23.33-81.65,0-5.28-.45-9.37-1.35-12.29-.9-2.92-1.98-4.37-3.23-4.37-2.64,0-5.28,4.69-7.92,14.06Z"/>
      <path class="cls-2" d="M321.09,294.86c1.04,1.67,1.56,3.96,1.56,6.87,0,5.56-1.32,9.86-3.96,12.91-5.14,6.25-12.39,12.01-21.77,17.29-9.37,5.28-19.41,7.92-30.1,7.92-14.58,0-25.9-3.96-33.95-11.87-8.06-7.92-12.08-18.75-12.08-32.5,0-9.58,2.01-18.5,6.04-26.77,4.03-8.26,9.61-14.82,16.77-19.68,7.15-4.86,15.24-7.29,24.27-7.29,8.05,0,14.51,2.4,19.37,7.19,4.86,4.79,7.29,11.28,7.29,19.48,0,9.58-3.44,17.81-10.31,24.68s-18.51,12.33-34.89,16.35c3.47,6.39,10.07,9.58,19.79,9.58,6.25,0,13.36-2.19,21.35-6.56,7.98-4.37,14.89-10.1,20.73-17.18,1.67-1.94,3.54-2.92,5.62-2.92,1.8,0,3.23.83,4.27,2.5ZM251.31,271.12c-3.54,5.97-5.31,13.19-5.31,21.66v.42c8.19-1.94,14.65-4.86,19.37-8.75,4.72-3.89,7.08-8.4,7.08-13.54,0-2.64-.73-4.75-2.19-6.35-1.46-1.59-3.44-2.4-5.94-2.4-5.14,0-9.48,2.99-13.02,8.96Z"/>
      <path class="cls-2" d="M311.72,330.27c-4.1-6.39-6.15-14.86-6.15-25.41,0-6.25.8-14.27,2.4-24.06,1.59-9.79,3.65-18.92,6.14-27.39,1.25-4.44,2.92-7.5,5-9.17s5.42-2.5,10-2.5c7.08,0,10.62,2.36,10.62,7.08,0,3.47-1.32,11.53-3.96,24.16-3.33,15.28-5,25.62-5,31.04,0,4.17.55,7.36,1.67,9.58,1.11,2.22,2.98,3.33,5.62,3.33,2.5,0,5.62-1.74,9.37-5.21,3.75-3.47,8.75-8.96,15-16.46,1.67-1.94,3.54-2.92,5.62-2.92,1.8,0,3.23.83,4.27,2.5,1.04,1.67,1.56,3.96,1.56,6.87,0,5.56-1.32,9.86-3.96,12.91-13.75,16.8-26.59,25.2-38.54,25.2-9.03,0-15.59-3.19-19.68-9.58Z"/>
      <path class="cls-2" d="M361.7,330.48c-4.93-6.25-7.39-14.44-7.39-24.58,0-11.11,2.57-21.63,7.71-31.56,5.14-9.93,11.98-17.91,20.52-23.95,8.54-6.04,17.6-9.06,27.18-9.06,3.05,0,5.1.59,6.15,1.77,1.04,1.18,1.91,3.3,2.6,6.35,2.64-.55,5.55-.83,8.75-.83s5.9.83,7.71,2.5c1.8,1.67,2.71,4.03,2.71,7.08s-.7,8.75-2.08,16.66c-1.53,8.47-2.71,16.56-3.54,24.27s-1.25,16.35-1.25,25.93c0,5.28-1.08,9.06-3.23,11.35-2.15,2.29-5.66,3.44-10.52,3.44s-8.23-1.15-10.52-3.44-3.44-6-3.44-11.14l.21-3.33c-4.31,11.94-11.74,17.91-22.29,17.91-7.92,0-14.34-3.12-19.27-9.37ZM399.72,310.69c3.19-5.42,6.04-15.07,8.54-28.95l3.96-21.04c-5.7.14-10.97,2.33-15.83,6.56-4.86,4.24-8.75,9.83-11.66,16.77-2.92,6.95-4.37,14.3-4.37,22.08,0,4.17.8,7.33,2.4,9.48,1.59,2.16,3.71,3.23,6.35,3.23,3.89,0,7.43-2.71,10.62-8.12Z"/>
    </g>
    <g>
      <path class="cls-2" d="M497.4,154.02c1.03,1,1.55,2.17,1.55,3.5,0,2.2-.62,3.8-1.85,4.8-1.23,1-3.18,1.4-5.85,1.2-6-.47-10.68-.78-14.05-.95-3.37-.17-7.78-.28-13.25-.35-2.47,12.27-4.73,24.6-6.8,37-.73,4.54-1.5,9.79-2.3,15.75-.8,5.97-1.33,10.79-1.6,14.45-.13,1.93-.93,3.42-2.4,4.45-1.47,1.03-3.23,1.55-5.3,1.55-2.2,0-3.9-.53-5.1-1.6-1.2-1.07-1.8-2.47-1.8-4.2,0-1.6.25-4.25.75-7.95s1.08-7.58,1.75-11.65c.73-4.07,1.3-7.6,1.7-10.6.73-5.07,1.57-10.1,2.5-15.1.93-5,1.87-9.73,2.8-14.2.2-1,.43-2.15.7-3.45.27-1.3.57-2.75.9-4.35-6.53.2-11.67.73-15.4,1.6-3.73.87-6.38,2.08-7.95,3.65s-2.35,3.58-2.35,6.05c0,2.27.67,4.43,2,6.5.27.47.4.97.4,1.5,0,1.27-.75,2.45-2.25,3.55-1.5,1.1-3.05,1.65-4.65,1.65-1.13,0-2.07-.33-2.8-1-1.33-1.13-2.43-2.75-3.3-4.85-.87-2.1-1.3-4.48-1.3-7.15,0-5.67,1.85-10.22,5.55-13.65,3.7-3.43,9.33-5.95,16.9-7.55,7.57-1.6,17.28-2.4,29.15-2.4,7.33,0,13.18.13,17.55.4,4.37.27,8.18.7,11.45,1.3,2.07.4,3.62,1.1,4.65,2.1Z"/>
      <path class="cls-2" d="M520.79,213.82c.5.8.75,1.9.75,3.3,0,2.67-.63,4.73-1.9,6.2-2.47,3-5.95,5.77-10.45,8.3-4.5,2.53-9.32,3.8-14.45,3.8-7,0-12.43-1.9-16.3-5.7-3.87-3.8-5.8-9-5.8-15.6,0-4.6.97-8.88,2.9-12.85,1.93-3.97,4.62-7.12,8.05-9.45,3.43-2.33,7.32-3.5,11.65-3.5,3.87,0,6.97,1.15,9.3,3.45,2.33,2.3,3.5,5.42,3.5,9.35,0,4.6-1.65,8.55-4.95,11.85-3.3,3.3-8.88,5.92-16.75,7.85,1.67,3.07,4.83,4.6,9.5,4.6,3,0,6.42-1.05,10.25-3.15,3.83-2.1,7.15-4.85,9.95-8.25.8-.93,1.7-1.4,2.7-1.4.87,0,1.55.4,2.05,1.2ZM487.29,202.42c-1.7,2.87-2.55,6.33-2.55,10.4v.2c3.93-.93,7.03-2.33,9.3-4.2,2.27-1.87,3.4-4.03,3.4-6.5,0-1.27-.35-2.28-1.05-3.05-.7-.77-1.65-1.15-2.85-1.15-2.47,0-4.55,1.43-6.25,4.3Z"/>
      <path class="cls-2" d="M517.29,229.87c-3.63-3.7-5.45-8.58-5.45-14.65,0-5.4,1.07-10.13,3.2-14.2,2.13-4.07,4.9-7.2,8.3-9.4,3.4-2.2,6.97-3.3,10.7-3.3s6.52,1.08,8.55,3.25c2.03,2.17,3.05,4.95,3.05,8.35,0,2.8-.62,5.17-1.85,7.1-1.23,1.93-2.85,2.9-4.85,2.9-1.27,0-2.28-.3-3.05-.9-.77-.6-1.15-1.43-1.15-2.5,0-.47.07-1,.2-1.6.13-.6.23-1.03.3-1.3.33-1,.5-1.93.5-2.8s-.22-1.53-.65-2c-.43-.47-1.05-.7-1.85-.7-1.53,0-2.97.68-4.3,2.05-1.33,1.37-2.4,3.22-3.2,5.55-.8,2.33-1.2,4.9-1.2,7.7,0,7.73,3.37,11.6,10.1,11.6,2.73,0,5.68-.92,8.85-2.75,3.17-1.83,6.28-4.58,9.35-8.25.8-.93,1.7-1.4,2.7-1.4.87,0,1.55.4,2.05,1.2s.75,1.9.75,3.3c0,2.53-.63,4.6-1.9,6.2-3.13,3.87-6.88,6.85-11.25,8.95-4.37,2.1-8.58,3.15-12.65,3.15-6.53,0-11.62-1.85-15.25-5.55Z"/>
      <path class="cls-2" d="M590.49,189.97c1.1,1.1,1.65,2.72,1.65,4.85,0,1.73-.37,5-1.1,9.8-.67,4.07-1.2,7.92-1.6,11.55-.4,3.63-.6,7.68-.6,12.15,0,2.53-.52,4.35-1.55,5.45-1.04,1.1-2.72,1.65-5.05,1.65-2.2,0-3.8-.57-4.8-1.7-1-1.13-1.5-2.83-1.5-5.1,0-2.67.47-7.07,1.4-13.2.8-5.33,1.2-8.73,1.2-10.2,0-1.07-.37-1.6-1.1-1.6-.87,0-2.1,1.12-3.7,3.35-1.6,2.23-3.2,5.18-4.8,8.85-1.6,3.67-2.9,7.53-3.9,11.6-.73,3.13-1.58,5.25-2.55,6.35-.97,1.1-2.48,1.65-4.55,1.65s-3.58-.75-4.55-2.25c-.97-1.5-1.62-3.82-1.95-6.95-.33-3.13-.5-7.73-.5-13.8,0-10.27,1.05-20.97,3.15-32.1,2.1-11.13,5.2-20.48,9.3-28.05,4.1-7.57,9.02-11.35,14.75-11.35,3.07,0,5.55,1.32,7.45,3.95,1.9,2.63,2.85,6.05,2.85,10.25,0,6.73-1.97,13.72-5.9,20.95-3.93,7.23-10.33,15.68-19.2,25.35-.2,3.47-.3,7.03-.3,10.7,2.2-5.67,4.65-10.28,7.35-13.85s5.37-6.12,8-7.65c2.63-1.53,5.05-2.3,7.25-2.3s3.75.55,4.85,1.65ZM572.04,155.97c-1.47,3.43-2.88,8.07-4.25,13.9-1.37,5.83-2.48,12.18-3.35,19.05,4.13-4.87,7.55-10.17,10.25-15.9,2.7-5.73,4.05-10.93,4.05-15.6,0-2.13-.23-3.77-.7-4.9-.47-1.13-1.13-1.7-2-1.7-1.2,0-2.54,1.72-4,5.15Z"/>
    </g>
    <g>
      <path class="cls-1" d="M471.49,339.56c-7.58,0-13.1-2-16.55-6.01-3.45-4-5.18-10.04-5.18-18.12v-8.98h17.63v9.03c0,2.28.28,4.21.85,5.79.57,1.58,1.85,2.37,3.83,2.37s3.3-.85,3.86-2.56c.55-1.71.83-4.5.83-8.37v-2.15c0-2.96-.5-5.55-1.49-7.76-.99-2.21-2.94-3.32-5.83-3.32-.36,0-.68,0-.95.02-.28.02-.51.04-.71.07v-15.43c2.96,0,5.22-.66,6.79-1.98s2.34-3.52,2.34-6.62c0-4.85-1.4-7.28-4.2-7.28-1.82,0-3.05.71-3.69,2.12s-.95,3.21-.95,5.4v2.59h-17.77c-.03-.39-.06-.86-.07-1.42-.02-.55-.02-1.09-.02-1.61,0-7.88,1.84-13.66,5.52-17.33,3.68-3.68,9.31-5.52,16.89-5.52,14.65,0,21.97,7.62,21.97,22.85,0,4.23-.57,7.72-1.71,10.47-1.14,2.75-3.26,4.68-6.35,5.79,2.44,1.17,4.25,2.67,5.42,4.49,1.17,1.82,1.94,4.09,2.29,6.79.36,2.7.54,5.97.54,9.81,0,8.59-1.8,15.22-5.4,19.87-3.6,4.66-9.56,6.98-17.9,6.98Z"/>
      <path class="cls-1" d="M523.1,339.37c-5.96,0-10.62-1.02-13.99-3.05-3.37-2.03-5.75-5.1-7.13-9.2-1.38-4.1-2.08-9.21-2.08-15.33v-23.24c0-5.96.25-11.21.76-15.77.5-4.56,1.55-8.38,3.15-11.47,1.59-3.09,3.97-5.44,7.13-7.03,3.16-1.59,7.37-2.39,12.65-2.39,3.61,0,6.98.63,10.11,1.88,3.12,1.25,5.65,3.12,7.57,5.62,1.92,2.49,2.88,5.61,2.88,9.35v9.28h-16.55v-1.76c0-1.43-.07-2.86-.22-4.3-.15-1.43-.51-2.62-1.1-3.56-.59-.94-1.58-1.42-2.98-1.42-1.92,0-3.26.53-4,1.59-.75,1.06-1.12,2.58-1.12,4.57v17.24c.81-1.53,2.03-2.76,3.66-3.69,1.63-.93,3.61-1.39,5.96-1.39,4.75,0,8.41.95,10.96,2.86,2.56,1.9,4.32,4.75,5.3,8.52.98,3.78,1.46,8.5,1.46,14.16s-.7,10.73-2.1,15.01c-1.4,4.28-3.74,7.61-7.01,9.99-3.27,2.38-7.71,3.56-13.31,3.56ZM522.47,323.55c2.02,0,3.22-.85,3.61-2.56s.59-3.9.59-6.57v-6.93c0-4.69-1.32-7.03-3.96-7.03-3.03,0-4.54,2.04-4.54,6.1v10.64c0,4.23,1.43,6.35,4.3,6.35Z"/>
      <path class="cls-1" d="M571.4,339.37c-7.26,0-12.87-2.03-16.82-6.1-3.96-4.07-5.93-9.93-5.93-17.58v-38.77c0-8.07,1.88-14.27,5.64-18.58,3.76-4.31,9.46-6.47,17.11-6.47s13.39,2.16,17.14,6.47c3.74,4.31,5.62,10.51,5.62,18.58v38.77c0,7.65-1.97,13.51-5.91,17.58-3.94,4.07-9.55,6.1-16.85,6.1ZM571.4,323.55c1.33,0,2.38-.6,3.12-1.81.75-1.2,1.12-2.55,1.12-4.05v-42.43c0-2.02-.22-3.78-.66-5.3s-1.64-2.27-3.59-2.27-3.15.76-3.59,2.27-.66,3.28-.66,5.3v42.43c0,1.5.38,2.85,1.15,4.05.76,1.21,1.8,1.81,3.1,1.81Z"/>
    </g>
    <g>
      <path class="cls-1" d="M439.77,13.03c5.53-2.59,10.6,1.37,9.38,6.45-.34,1.42-16.95,15.46-19.53,17.77-4.37,3.91-8.74,7.82-13.28,11.52,8.98,14.16,13.15,31,13.67,47.66,8.19.8,16.4.58,24.61.59,5.94,0,26.16-2.24,28.91,2.34,1.47,2.46,1.09,5.7-1.56,7.03-2.89,1.45-29.27.72-35.16.78-5.6.06-11.21-.21-16.8.2-.81,15.68-4.82,31.57-13.28,44.92l15.23,13.87c.22.46,5.13,5.05-.2,8.59-6.68,4.45-15.31-10.2-21.09-12.89-5.48,8.54-13.31,15.06-20.51,22.07,3.33,4.34,27.4,32.19,27.73,34.38.64,4.19-4.5,7.55-8.79,5.66-.98-.43-12.06-14.26-13.87-16.41-4.86-5.75-9.35-11.86-14.26-17.58-1.02-.24-7.29,6.71-11.13.78-1-1.54-1.57-3.53-.78-5.27,1.97-4.36,45.64-22.31,50-77.34-.8-1.74-13.77,2.16-13.28-6.25.44-7.56,12.47-3.64,13.28-5.47-.88-45.33-38.98-83.24-83.98-84.77-.5,5.07,2.73,19.04-6.84,16.21-5.57-1.65-2.57-11.72-3.32-16.21-46.14,1.95-81.53,38.86-83.98,84.77.88,1.79,12.01-1.71,13.28,4.3,2.11,9.96-12.08,5.6-12.89,7.42,3.79,55.33,48.37,73.35,50.39,77.73.3.65.08,2.17,0,2.93-2.01,2.65-2.31,8.41-12.3,1.17-4.75,4.33-26.31,33.69-29.69,34.38-5.01,1.02-8.37-3.29-6.05-8.4.95-2.08,22.73-26.82,26.17-32.42-7.81-6.41-14.52-13.89-20.9-21.68-2.88,2.26-13.94,13.79-16.41,14.06-3.51.38-9.81-3.38-4.1-10.16,1.68-2,14.3-12.5,14.45-13.48-7.55-13.58-11.94-28.99-12.5-44.53-.51-1.14-18.65-.42-21.48-.59-2.54-.15-7.35.26-8.59-2.93-1.4-3.59,1.52-6.59,4.69-7.62l25.39-.2c0-15.39,5-34.43,13.67-47.27-3.65-3.73-7.82-6.9-11.72-10.35-3.04-2.69-21.09-17.76-21.48-19.73-.71-3.59,2.55-10.09,10.55-4.49,4.87,3.4,21.42,19.47,28.71,25l14.65-15.82c-1.6-4.52-12.81-18.91-3.32-20.9,7.17-1.5,8.63,9.77,12.5,14.06,34.66-23,77.69-22.17,112.5,0,.71-.15,5.97-11.76,6.45-12.3,3.15-3.61,10.27-1.4,10.16,3.52-.02.95-6.7,13.24-7.81,15.62l15.43,15.43c9.47-8.94,20.19-16.76,29.1-26.17Z"/>
      <path class="cls-1" d="M358.91,159.71c8.15-34.01,39.78-62.68,16.41-98.05-20.93-31.66-71.17-31.31-91.02,1.17-21.33,34.92,8.53,62.79,16.8,96.09.8,10.86.26,21.75.39,32.62.2,16.32-4.68,35.39,15.82,34.77,8,11.76,17.48,11.8,25.39,0,6.05,1.03,13.9-2.17,15.43-8.59,1.07-4.5.27-20.42.39-26.56.21-10.48.58-20.96.39-31.45ZM348.16,214.6l-36.13-.2.59-54.49,35.74.2-.2,54.49ZM350.51,149.75h-8.2c1.21-4.67,10.77-36.81,11.91-38.48,1.22-1.79,4.16-1.32,5.47-3.12-2.79-3.2-4.9-14.49-10.74-11.52-.53.27-7.17,8.97-7.23,9.57-.05.57,1.78,3.25,2.34,3.91-2.69,4.95-11.34,36.64-12.5,38.28-.43.61-1.4,1.35-2.15.98-1.77-.88-9.53-33.67-11.91-37.7-.88-2.71,2.26-2.28,2.34-3.91.04-.85-8.44-13.84-9.18-14.26-2.02-1.15-5.08.35-6.05,2.15-.31.58-2.57,12.27-2.34,12.89.31.87,3.58.94,4.3,1.95,1.19,1.67,9.96,34.23,11.91,39.26l-8.79-.2c-3.35-12.2-20.05-44.54-21.48-51.95-4.77-24.61,15.06-47.6,39.65-48.63,26.96-1.13,50.17,22.6,44.34,49.8-1.19,5.54-18.7,39.51-21.68,50.98Z"/>
      <path class="cls-1" d="M316.91,180.22c1.29.32,25.27.29,26.56,0,4.77-1.05,4.28-8.3,0-9.77-1.18-.4-23.77-.6-25-.39-6.05,1.02-6,9.04-1.56,10.16Z"/>
      <path class="cls-1" d="M343.48,197.8c-1.3-.29-25.27-.32-26.56,0-4.11,1.02-3.93,8.81.39,9.77,1.24.27,24.15.25,25.39,0,5.06-1.02,5.5-8.69.78-9.77Z"/>
      <path class="cls-1" d="M343.48,193.5c4.53-1.05,4.43-8.7-.78-9.77-1.24-.25-24.16-.29-25.39,0-4.16.99-4.74,8.75,0,9.77,1.28.28,24.9.3,26.17,0Z"/>
    </g>
  </g>
</svg>